<svg xmlns="http://www.w3.org/2000/svg" width="211" height="171" fill="none"><path fill="#000" d="M105.267 3.333c-19.067 5.067-36 16.8-46.8 32.534L54.2 42H45c-18 0-32.267 8.8-40.133 24.667C-3.8 84.267.333 104.4 15.4 118.133c5.467 5.067 6.933 7.067 5.733 8.267-1.066 1.067-1.866 1.067-3.066-.133-.934-.934-2.134-1.6-2.667-1.6-1.867 0-1.067 2.666 1.6 5.333 3.2 3.2 10.4 3.467 14.133.667 1.734-1.2 5.867-1.867 12.534-2h10l7.066 9.2c34.4 45.066 103.867 42.4 135.6-5.2 23.867-35.867 18.134-81.467-14-111.2C162.867 3.6 132.2-3.733 105.267 3.333Zm44.4 4.267c24.666 6.933 45.6 27.067 54 51.733 4.133 11.867 5.066 32 2.133 44.534-14 59.6-87.6 82.666-133.333 41.866-4.134-3.6-9.334-9.333-11.6-12.533l-4-5.867 5.866-2.666C70.867 120.8 79.4 112 83.533 103.333c4.534-9.733 4.8-25.466.534-34.933-3.734-8.267-12.8-17.867-20.667-21.867L56.867 43.2l4.4-6.133c19.333-26.934 55.2-38.934 88.4-29.467ZM50.733 45.467c.4.4-.666 4.4-2.4 8.933-2.8 7.6-3.466 8.4-8.4 9.867C32.2 66.4 27.8 69.733 24.867 75.467 21.667 82 21.667 88.8 25 95.333c3.067 6 6.8 8.934 14.8 11.2 4.933 1.467 5.867 2.4 8 8.267 4.667 12 4.8 11.2-2.667 11.2-8.666 0-10.8-.933-10.8-4.8 0-6.8-9.2-10.8-16-7.2-2.133 1.067-3.066.533-5.733-2.933-5.733-7.734-8-13.467-8.667-22.4-.666-10.4.934-17.2 6.267-25.467 4.8-7.733 11.6-12.933 20.533-16 6.667-2.4 18.4-3.333 20-1.733Zm14.4 5.733c16.134 10.133 22.8 29.333 16.667 47.733-2.933 8.667-11.2 18.267-19.6 22.534l-6.533 3.2-2.534-5.067c-5.733-11.2-8.8-30.933-4.933-30.933 1.333 0 2.267 2.133 2.933 6.266 1.334 9.6 2 10.4 6.267 7.067 11.733-9.2 9.867-28.133-3.467-35.333-5.733-3.067-5.866-4-2.133-12.8 3.333-7.734 4.933-8 13.333-2.667Z"/><path fill="#000" d="M120.333 58.533c-2.133.934-5.066 2.934-6.266 4.4-3.067 3.334-22.4 44.4-22.4 47.467 0 2.8 3.6 4.533 6.266 2.8.934-.667 6.267-10.8 11.734-22.533 5.6-11.734 11.066-22.134 12.266-23.067 2.934-2.133 8.534-2 11.734.133C135 68.8 140.6 79.467 146.2 91.467c9.2 19.6 10.533 21.866 13.467 21.866 2.133 0 3.466-.8 3.733-2.533.667-2.933-17.6-42.8-21.6-47.333-5.467-6.267-14-8.267-21.467-4.934Z"/></svg>
