<svg xmlns="http://www.w3.org/2000/svg" width="330" height="100" fill="none"><path fill="#000" d="M59.733 2.067C50.933 5.4 42.8 11 37.067 17.667c-5.067 5.866-6.4 6.666-11.067 6.8-9.733.133-16.8 4-22.533 12.4C.667 41.133 0 43.533 0 50.333c0 6.934.667 9.2 4 14.267 2.267 3.467 4.933 6.533 6 6.933C12.8 72.6 12.533 75 9.733 75c-2.133 0-2.133.133 0 2.267 1.867 2 2.934 2 6.667.666 2.4-.933 6.8-1.6 9.733-1.6 4.667 0 5.867.8 11.334 7.067 3.733 4.133 9.733 8.933 14.666 11.733 8.267 4.4 9.067 4.534 23.2 4.534 14.134 0 14.934-.134 22.934-4.534 4.533-2.4 9.333-5.6 10.666-7.2 2.8-3.2 1.067-2.266-6.666 3.2-12.534 9.067-33.067 10.534-48 3.6-6.667-3.2-20.934-15.466-20.934-18.133 0-.533 2.4-2.267 5.334-4 16.266-9.2 16.266-35.333 0-44.533-2.934-1.734-5.334-3.467-5.334-4 0-.534 2.934-4 6.667-7.734C49.067 7 59.067 2.6 72.4 1.933c13.333-.666 20.533 1.334 31.6 8.8 5.867 4 7.6 4.8 5.6 2.534-1.733-1.867-6.8-5.334-11.333-7.734-7.467-4-9.6-4.533-20.934-4.8-8.4-.266-14.266.134-17.6 1.334ZM30.4 26.6l-2.4 6c-1.2 3.2-2.667 5.067-4.267 5.067-1.333 0-4.266 1.733-6.533 3.733-3.333 2.933-4.133 4.8-4.133 8.933 0 4.134.8 6 4.133 8.934 2.267 2 5.2 3.733 6.533 3.733 1.6 0 3.067 1.867 4.267 4.933 1.067 2.8 2.133 5.467 2.4 6C30.667 74.6 28.533 75 25.733 75c-4.533 0-5.333-.533-6.666-4.133-1.467-3.867-2-4.134-6.267-3.467-4.267.667-5.067.267-7.733-3.467C2.533 60.467 2 57.933 2 50.2c0-8.267.4-10 3.867-14.4C8 33 12.133 29.533 15.2 28.2c5.333-2.4 16.133-3.467 15.2-1.6Zm8.267 3.333c8.133 5.6 10 9.467 10 20.4 0 7.867-.534 10.534-2.8 13.6-2.8 3.734-10.667 9.734-12.8 9.734-1.734 0-4.934-8.4-6-15.334-.934-7.2 1.733-8.4 3.066-1.466.934 5.6 3.467 5.2 6.534-1.2 3.066-6.8 1.2-11.867-6.4-17.2-2.4-1.467-2.4-2-.4-6.534C30.933 29.267 32.4 27 33.067 27c.666 0 3.2 1.333 5.6 2.933ZM317.6 29.933c-3.2 3.2-.8 9.2 3.733 8.934 1.2 0 .8-.534-1.066-1.334-2.267-.8-2.934-2-2.667-4.133.4-2.667 1.2-3.067 6-3.067 2.933 0 5.2-.4 4.8-1.066-.933-1.6-9.067-1.067-10.8.666Z"/><path fill="#000" d="M320 33.267c0 1.6.933 2.4 3.2 2.4 4 0 3.733-3.867-.267-4.4-2.133-.267-2.933.266-2.933 2Zm4.933-.134c-.4.4-1.6.534-2.533.134-1.067-.4-.667-.8.8-.8 1.467-.134 2.267.266 1.733.666ZM68.933 35.533C66.4 37.4 54.667 61.667 54.667 65c0 1.067.8 2 1.866 2 1.067 0 4.8-5.867 8.667-14 5.6-11.867 7.067-14 9.733-14 4.667 0 5.467 1.067 12.134 14.933C90.933 62.333 93.867 67 95.2 67c1.2 0 2.133-.8 2.133-1.733 0-3.6-13.2-28.8-15.733-30.134-3.733-2-9.733-1.733-12.667.4ZM106.933 35.933c.4 2 2.4 2.534 13.734 3.067l13.333.667.4 4c.667 5.466-2.533 7.333-12.667 7.333-7.2 0-9.066.533-11.733 3.333-4.133 4-4.8 13.2-.933 12.4 1.2-.266 2.533-1.866 2.666-3.733.8-5.333 2.8-6.667 10.267-6.667 13.2 0 18-3.333 18-12.533 0-3.333-.933-5.333-3.467-7.333-3.066-2.4-5.466-2.8-16.8-2.8-11.866 0-13.2.266-12.8 2.266ZM155.733 35.8c-7.6 4-10 16-5.066 24.133 2.933 4.8 5.333 6.4 12 7.467 16.933 2.933 29.866-12.8 21.066-25.733-1.733-2.534-4.666-5.334-6.4-6.267-4.533-2.267-17.2-2.133-21.6.4Zm21.334 5.867c9.466 8.933 1.466 22.533-12.267 20.8-11.067-1.334-16-13.734-8.133-20.4 4.8-4.134 16.133-4.4 20.4-.4ZM194.667 45.667c0 11.2.266 12.266 3.733 16 6.133 7.066 28.267 9.6 28.267 3.333 0-1.2-3.067-1.867-10-2.267-8.8-.4-10.4-.933-13.6-4.133-3.334-3.2-3.734-4.8-4.134-14.267-.4-8-1.066-10.666-2.4-10.666-1.466 0-1.866 2.666-1.866 12ZM232 43.667c0 12 2.133 17.733 8.267 21.2 4.666 2.8 20.666 4.4 23.6 2.4 3.466-2.4 0-4.267-8.267-4.267-9.467 0-16.4-3.333-17.6-8.267-.4-1.733-.8-6.933-.933-11.733-.4-7.067-.8-8.667-2.667-9.067-2.133-.4-2.4.8-2.4 9.734ZM278.4 35.8c-9.2 4.933-10.933 19.733-3.2 27.067 7.333 6.8 22.533 6.266 29.067-1.067 7.2-8 5.6-20-3.2-25.467-5.334-3.2-17.2-3.6-22.667-.533Zm22.133 7.333c4 4.667 4.267 7.734 1.467 13.2-2.267 4.534-9.6 7.334-15.867 6.134C276 60.6 271.867 48.467 279.2 42.2c2.8-2.533 5.2-3.2 10.8-3.2 6.267 0 7.467.4 10.533 4.133ZM326 37.667c-2.133.933-2.267 1.2-.4 1.2 1.2.133 2.667-.534 3.067-1.2.933-1.467.933-1.467-2.667 0Z"/></svg>
